<svg xmlns="http://www.w3.org/2000/svg" viewBox="0 0 256 256" fill="none">
  <defs>
    <linearGradient id="bg" x1="32" y1="16" x2="224" y2="240" gradientUnits="userSpaceOnUse">
      <stop stop-color="#1f1712"/>
      <stop offset="0.55" stop-color="#120e0b"/>
      <stop offset="1" stop-color="#080605"/>
    </linearGradient>
    <linearGradient id="gold" x1="80" y1="48" x2="176" y2="208" gradientUnits="userSpaceOnUse">
      <stop stop-color="#f6e3a4"/>
      <stop offset="0.45" stop-color="#d4af37"/>
      <stop offset="1" stop-color="#8b6914"/>
    </linearGradient>
    <radialGradient id="glow" cx="0" cy="0" r="1" gradientUnits="userSpaceOnUse" gradientTransform="translate(128 148) rotate(90) scale(92)">
      <stop stop-color="#8b1a1a" stop-opacity="0.55"/>
      <stop offset="1" stop-color="#8b1a1a" stop-opacity="0"/>
    </radialGradient>
  </defs>

  <rect x="8" y="8" width="240" height="240" rx="48" fill="url(#bg)" stroke="#5c4a32" stroke-width="6"/>
  <rect x="20" y="20" width="216" height="216" rx="40" stroke="#b8860b" stroke-opacity="0.45" stroke-width="3"/>

  <circle cx="128" cy="148" r="92" fill="url(#glow)"/>

  <path d="M128 52 L146 98 L196 98 L156 128 L172 174 L128 146 L84 174 L100 128 L60 98 L110 98 Z" fill="url(#gold)" stroke="#5a3d08" stroke-width="4" stroke-linejoin="round"/>

  <path d="M128 78 L136 104 L162 104 L142 120 L150 146 L128 132 L106 146 L114 120 L94 104 L120 104 Z" fill="#fff3c4" fill-opacity="0.18"/>

  <path d="M92 188 H164" stroke="#b8860b" stroke-opacity="0.65" stroke-width="5" stroke-linecap="round"/>
  <path d="M104 204 H152" stroke="#7a2020" stroke-opacity="0.8" stroke-width="4" stroke-linecap="round"/>
</svg>
